<?xml version="1.0" encoding="UTF-8" standalone="no"?>
<svg
   xmlns:dc="http://purl.org/dc/elements/1.1/"
   xmlns:cc="http://creativecommons.org/ns#"
   xmlns:rdf="http://www.w3.org/1999/02/22-rdf-syntax-ns#"
   xmlns:svg="http://www.w3.org/2000/svg"
   xmlns="http://www.w3.org/2000/svg"
   viewBox="0 0 571.25 277.5"
   height="277.5"
   width="571.25"
   xml:space="preserve"
   version="1.1"
   id="svg2"><metadata
     id="metadata8"><rdf:RDF><cc:Work
         rdf:about=""><dc:format>image/svg+xml</dc:format><dc:type
           rdf:resource="http://purl.org/dc/dcmitype/StillImage" /><dc:title></dc:title></cc:Work></rdf:RDF></metadata><defs
     id="defs6"><clipPath
       id="clipPath18"
       clipPathUnits="userSpaceOnUse"><path
         id="path20"
         d="M 0,0 457,0 457,222 0,222 0,0 Z" /></clipPath></defs><g
     transform="matrix(1.25,0,0,-1.25,0,277.5)"
     id="g10"><g
       id="g12" /><g
       id="g14"><g
         clip-path="url(#clipPath18)"
         id="g16"><path
           id="path22"
           style="fill:#ffffff;fill-opacity:1;fill-rule:nonzero;stroke:none"
           d="m -54.5,379.5 806,0 0,-536 -806,0 0,536 z" /><path
           id="path24"
           style="fill:#ffffff;fill-opacity:1;fill-rule:nonzero;stroke:none"
           d="m 369.125,210.1396 77,0 0,-133.24998 -77,0 0,133.24998 z" /><g
           transform="matrix(1,0,0,-1,-53.5,378.5)"
           id="g26"><path
             id="path28"
             style="fill:none;stroke:#000000;stroke-width:0.5;stroke-linecap:round;stroke-linejoin:round;stroke-miterlimit:10;stroke-dasharray:none;stroke-opacity:1"
             d="m 422.625,168.3604 77,0 0,133.25 -77,0 0,-133.25 z" /></g><path
           id="path30"
           style="fill:#ffffff;fill-opacity:1;fill-rule:nonzero;stroke:none"
           d="m 12.125,210.1396 77,0 0,-133.24998 -77,0 0,133.24998 z" /><g
           transform="matrix(1,0,0,-1,-53.5,378.5)"
           id="g32"><path
             id="path34"
             style="fill:none;stroke:#000000;stroke-width:0.5;stroke-linecap:round;stroke-linejoin:round;stroke-miterlimit:10;stroke-dasharray:none;stroke-opacity:1"
             d="m 65.625,168.3604 77,0 0,133.25 -77,0 0,-133.25 z" /></g><path
           id="path36"
           style="fill:#fbfbfb;fill-opacity:1;fill-rule:nonzero;stroke:none"
           d="m 203.5,186.375 60.25,0 c 1.6569,0 3,-1.3431 3,-3 l 0,-21.75 c 0,-1.6569 -1.3431,-3 -3,-3 l -60.25,0 c -1.6569,0 -3,1.3431 -3,3 l 0,21.75 c 0,1.6569 1.3431,3 3,3 z" /><g
           transform="matrix(1,0,0,-1,-53.5,378.5)"
           id="g38"><path
             id="path40"
             style="fill:none;stroke:#000000;stroke-width:0.5;stroke-linecap:round;stroke-linejoin:round;stroke-miterlimit:10;stroke-dasharray:none;stroke-opacity:1"
             d="m 257,192.125 60.25,0 c 1.6569,0 3,1.3431 3,3 l 0,21.75 c 0,1.6569 -1.3431,3 -3,3 l -60.25,0 c -1.6569,0 -3,-1.3431 -3,-3 l 0,-21.75 c 0,-1.6569 1.3431,-3 3,-3 z" /></g><g
           transform="matrix(1,0,0,-1,233.125,173)"
           id="g42"><text
             id="text44"
             style="font-variant:normal;font-weight:300;font-size:8px;font-family:Helvetica;-inkscape-font-specification:Helvetica-Light;writing-mode:lr-tb;fill:#000000;fill-opacity:1;fill-rule:nonzero;stroke:none"
             transform="translate(-13.564,3)"><tspan
               id="tspan46"
               y="0"
               x="0 4.448 9.3360004 13.784 18.232 20.455999 22.68">agent 1</tspan></text>
</g><path
           id="path48"
           style="fill:#fbfbfb;fill-opacity:1;fill-rule:nonzero;stroke:none"
           d="m 20.5,110.5 60.25,0 c 1.65685,0 3,-1.3431 3,-3 l 0,-21.75 c 0,-1.65685 -1.34315,-3 -3,-3 l -60.25,0 c -1.65685,0 -3,1.34315 -3,3 l 0,21.75 c 0,1.6569 1.34315,3 3,3 z" /><g
           transform="matrix(1,0,0,-1,-53.5,378.5)"
           id="g50"><path
             id="path52"
             style="fill:none;stroke:#000000;stroke-width:0.5;stroke-linecap:round;stroke-linejoin:round;stroke-miterlimit:10;stroke-dasharray:none;stroke-opacity:1"
             d="m 74,268 60.25,0 c 1.6569,0 3,1.3431 3,3 l 0,21.75 c 0,1.6569 -1.3431,3 -3,3 l -60.25,0 c -1.65685,0 -3,-1.3431 -3,-3 L 71,271 c 0,-1.6569 1.34315,-3 3,-3 z" /></g><g
           transform="matrix(1,0,0,-1,50.125,97.125)"
           id="g54"><text
             id="text56"
             style="font-variant:normal;font-weight:300;font-size:8px;font-family:Helvetica;-inkscape-font-specification:Helvetica-Light;writing-mode:lr-tb;fill:#000000;fill-opacity:1;fill-rule:nonzero;stroke:none"
             transform="translate(-21.492,3)"><tspan
               id="tspan58"
               y="0"
               x="0 4.448 6.9679999 11.416 15.864 20.312 24.312 26.535999 29.200001 33.647999 35.872002 40.32">orchestrator</tspan></text>
</g><path
           id="path60"
           style="fill:#fbfbfb;fill-opacity:1;fill-rule:nonzero;stroke:none"
           d="m 203.5,112.625 60.25,0 c 1.6569,0 3,-1.3431 3,-3 l 0,-21.75 c 0,-1.65685 -1.3431,-3 -3,-3 l -60.25,0 c -1.6569,0 -3,1.34315 -3,3 l 0,21.75 c 0,1.6569 1.3431,3 3,3 z" /><g
           transform="matrix(1,0,0,-1,-53.5,378.5)"
           id="g62"><path
             id="path64"
             style="fill:none;stroke:#000000;stroke-width:0.5;stroke-linecap:round;stroke-linejoin:round;stroke-miterlimit:10;stroke-dasharray:none;stroke-opacity:1"
             d="m 257,265.875 60.25,0 c 1.6569,0 3,1.3431 3,3 l 0,21.75 c 0,1.6569 -1.3431,3 -3,3 l -60.25,0 c -1.6569,0 -3,-1.3431 -3,-3 l 0,-21.75 c 0,-1.6569 1.3431,-3 3,-3 z" /></g><g
           transform="matrix(1,0,0,-1,233.125,99.25)"
           id="g66"><text
             id="text68"
             style="font-variant:normal;font-weight:300;font-size:8px;font-family:Helvetica;-inkscape-font-specification:Helvetica-Light;writing-mode:lr-tb;fill:#000000;fill-opacity:1;fill-rule:nonzero;stroke:none"
             transform="translate(-13.564,3)"><tspan
               id="tspan70"
               y="0"
               x="0 4.448 9.3360004 13.784 18.232 20.455999 22.68">agent 2</tspan></text>
</g><path
           id="path72"
           style="fill:#fbfbfb;fill-opacity:1;fill-rule:nonzero;stroke:none"
           d="m 203.5,38.875 60.25,0 c 1.6569,0 3,-1.34315 3,-3 l 0,-21.75 c 0,-1.65685 -1.3431,-3 -3,-3 l -60.25,0 c -1.6569,0 -3,1.34315 -3,3 l 0,21.75 c 0,1.65685 1.3431,3 3,3 z" /><g
           transform="matrix(1,0,0,-1,-53.5,378.5)"
           id="g74"><path
             id="path76"
             style="fill:none;stroke:#000000;stroke-width:0.5;stroke-linecap:round;stroke-linejoin:round;stroke-miterlimit:10;stroke-dasharray:1, 4;stroke-dashoffset:0;stroke-opacity:1"
             d="m 257,339.625 60.25,0 c 1.6569,0 3,1.3431 3,3 l 0,21.75 c 0,1.6569 -1.3431,3 -3,3 l -60.25,0 c -1.6569,0 -3,-1.3431 -3,-3 l 0,-21.75 c 0,-1.6569 1.3431,-3 3,-3 z" /></g><g
           transform="matrix(1,0,0,-1,233.125,25.5)"
           id="g78"><text
             id="text80"
             style="font-variant:normal;font-weight:300;font-size:8px;font-family:Helvetica;-inkscape-font-specification:Helvetica-Light;writing-mode:lr-tb;fill:#000000;fill-opacity:0.5;fill-rule:nonzero;stroke:none"
             transform="translate(-13.564,3)"><tspan
               id="tspan82"
               y="0"
               x="0 4.448 9.3360004 13.784 18.232 20.455999 22.68">agent n</tspan></text>
</g><g
           transform="matrix(1,0,0,-1,-53.5,378.5)"
           id="g84"><path
             id="path86"
             style="fill:none;stroke:#000000;stroke-width:0.5;stroke-linecap:round;stroke-linejoin:round;stroke-miterlimit:10;stroke-dasharray:none;stroke-opacity:1"
             d="M 135.965,268.5382 254,206" /></g><g
           transform="matrix(1,0,0,-1,-53.5,378.5)"
           id="g88"><path
             id="path90"
             style="fill:none;stroke:#000000;stroke-width:0.5;stroke-linecap:round;stroke-linejoin:round;stroke-miterlimit:10;stroke-dasharray:none;stroke-opacity:1"
             d="M 137.25,281.875 254,279.75" /></g><g
           transform="matrix(1,0,0,-1,-53.5,378.5)"
           id="g92"><path
             id="path94"
             style="fill:none;stroke:#000000;stroke-width:0.5;stroke-linecap:round;stroke-linejoin:round;stroke-miterlimit:10;stroke-dasharray:1, 4;stroke-dashoffset:0;stroke-opacity:1"
             d="M 135.965,295.2118 254,353.5" /></g><path
           id="path96"
           style="fill:#fbfbfb;fill-opacity:1;fill-rule:nonzero;stroke:none"
           d="m 377.5,112.625 60.25,0 c 1.6569,0 3,-1.3431 3,-3 l 0,-21.75 c 0,-1.65685 -1.3431,-3 -3,-3 l -60.25,0 c -1.6569,0 -3,1.34315 -3,3 l 0,21.75 c 0,1.6569 1.3431,3 3,3 z" /><g
           transform="matrix(1,0,0,-1,-53.5,378.5)"
           id="g98"><path
             id="path100"
             style="fill:none;stroke:#000000;stroke-width:0.5;stroke-linecap:round;stroke-linejoin:round;stroke-miterlimit:10;stroke-dasharray:none;stroke-opacity:1"
             d="m 431,265.875 60.25,0 c 1.6569,0 3,1.3431 3,3 l 0,21.75 c 0,1.6569 -1.3431,3 -3,3 l -60.25,0 c -1.6569,0 -3,-1.3431 -3,-3 l 0,-21.75 c 0,-1.6569 1.3431,-3 3,-3 z" /></g><g
           transform="matrix(1,0,0,-1,407.125,99.25)"
           id="g102"><text
             id="text104"
             style="font-variant:normal;font-weight:300;font-size:7px;font-family:Helvetica;-inkscape-font-specification:Helvetica-Light;writing-mode:lr-tb;fill:#000000;fill-opacity:1;fill-rule:nonzero;stroke:none"
             transform="translate(-25.0915,-1.5)"><tspan
               id="tspan106"
               y="0"
               x="0 4.6690001 8.5609999 10.507 14.399 18.291 20.622 22.176001 24.122 28.014 29.959999 31.514 35.014 38.905998 40.852001 45.905998">Authoritative NS</tspan></text>
</g><g
           transform="matrix(1,0,0,-1,407.125,99.25)"
           id="g108"><text
             id="text110"
             style="font-variant:normal;font-weight:300;font-size:6px;font-family:Helvetica;-inkscape-font-specification:Helvetica-Light;writing-mode:lr-tb;fill:#000000;fill-opacity:1;fill-rule:nonzero;stroke:none"
             transform="translate(-24.174,6.5)"><tspan
               id="tspan112"
               y="0"
               x="0 3.336 6.336 8.0039997 9.6719999 13.008 15.006 18.672001 22.007999 23.676001 25.344 28.68 31.68 35.015999 40.014 43.68 45.012001">ns.target.example</tspan></text>
</g><g
           transform="matrix(1,0,0,-1,-53.5,378.5)"
           id="g114"><path
             id="path116"
             style="fill:none;stroke:#000000;stroke-width:0.5;stroke-linecap:round;stroke-linejoin:round;stroke-miterlimit:10;stroke-dasharray:none;stroke-opacity:1"
             d="m 320.25,206 109.035,60.4132" /></g><g
           transform="matrix(1,0,0,-1,-53.5,378.5)"
           id="g118"><path
             id="path120"
             style="fill:none;stroke:#000000;stroke-width:0.5;stroke-linecap:round;stroke-linejoin:round;stroke-miterlimit:10;stroke-dasharray:none;stroke-opacity:1"
             d="m 320.25,279.75 107.75,0" /></g><g
           transform="matrix(1,0,0,-1,-53.5,378.5)"
           id="g122"><path
             id="path124"
             style="fill:none;stroke:#000000;stroke-width:0.5;stroke-linecap:round;stroke-linejoin:round;stroke-miterlimit:10;stroke-dasharray:1, 4;stroke-dashoffset:0;stroke-opacity:1"
             d="M 320.25,353.5 429.285,293.0868" /></g><g
           transform="matrix(0.8837657,0.4679297,0.4679297,-0.8837657,144.4317,143.3594)"
           id="g126"><text
             id="text128"
             style="font-variant:normal;font-weight:normal;font-size:8px;font-family:'Lucida Grande';-inkscape-font-specification:LucidaGrande;writing-mode:lr-tb;fill:#000000;fill-opacity:1;fill-rule:nonzero;stroke:none"
             transform="translate(-34.5,-2)"><tspan
               id="tspan130"
               y="0"
               x="0">→</tspan></text>
</g><g
           transform="matrix(0.8837657,0.4679297,0.4679297,-0.8837657,144.4317,143.3594)"
           id="g132"><text
             id="text134"
             style="font-variant:normal;font-weight:300;font-size:7px;font-family:Helvetica;-inkscape-font-specification:Helvetica-Light;writing-mode:lr-tb;fill:#000000;fill-opacity:1;fill-rule:nonzero;stroke:none"
             transform="translate(-26.5,-2)"><tspan
               id="tspan136"
               y="0"
               x="0 5.0539999 8.9460001 12.838 17.115 19.061001 24.507 28.784 32.675999 34.622002 39.291 43.182999 47.459999 51.352001 55.243999 58.743999">HTTP GET Request</tspan></text>
</g><g
           transform="matrix(0.8837657,0.4679297,0.4679297,-0.8837657,144.4317,143.3594)"
           id="g138"><text
             id="text140"
             style="font-variant:normal;font-weight:normal;font-size:8px;font-family:'Lucida Grande';-inkscape-font-specification:LucidaGrande;writing-mode:lr-tb;fill:#000000;fill-opacity:1;fill-rule:nonzero;stroke:none"
             transform="translate(-34.5,8)"><tspan
               id="tspan142"
               y="0"
               x="0">←</tspan></text>
</g><g
           transform="matrix(0.8837657,0.4679297,0.4679297,-0.8837657,144.4317,143.3594)"
           id="g144"><text
             id="text146"
             style="font-variant:normal;font-weight:300;font-size:7px;font-family:Helvetica;-inkscape-font-specification:Helvetica-Light;writing-mode:lr-tb;fill:#000000;fill-opacity:1;fill-rule:nonzero;stroke:none"
             transform="translate(-26.5,8)"><tspan
               id="tspan148"
               y="0"
               x="0 3.5 7.777 13.223 18.277 20.223 24.892 28.784 32.284 36.561001 40.452999 44.345001 47.845001">JSON Response</tspan></text>
</g><g
           transform="matrix(0.8759458,-0.4824095,-0.4824095,-0.8759458,319.057,144.0883)"
           id="g150"><text
             id="text152"
             style="font-variant:normal;font-weight:normal;font-size:8px;font-family:'Lucida Grande';-inkscape-font-specification:LucidaGrande;writing-mode:lr-tb;fill:#000000;fill-opacity:1;fill-rule:nonzero;stroke:none"
             transform="translate(-24,-2)"><tspan
               id="tspan154"
               y="0"
               x="0">→</tspan></text>
</g><g
           transform="matrix(0.8759458,-0.4824095,-0.4824095,-0.8759458,319.057,144.0883)"
           id="g156"><text
             id="text158"
             style="font-variant:normal;font-weight:300;font-size:7px;font-family:Helvetica;-inkscape-font-specification:Helvetica-Light;writing-mode:lr-tb;fill:#000000;fill-opacity:1;fill-rule:nonzero;stroke:none"
             transform="translate(-16,-2)"><tspan
               id="tspan160"
               y="0"
               x="0 5.0539999 10.108 14.385 16.330999 21.777 25.669001 29.561001 32.018002">DNS Query</tspan></text>
</g><g
           transform="matrix(0.8759458,-0.4824095,-0.4824095,-0.8759458,319.057,144.0883)"
           id="g162"><text
             id="text164"
             style="font-variant:normal;font-weight:normal;font-size:8px;font-family:'Lucida Grande';-inkscape-font-specification:LucidaGrande;writing-mode:lr-tb;fill:#000000;fill-opacity:1;fill-rule:nonzero;stroke:none"
             transform="translate(-24,8)"><tspan
               id="tspan166"
               y="0"
               x="0">←</tspan></text>
</g><g
           transform="matrix(0.8759458,-0.4824095,-0.4824095,-0.8759458,319.057,144.0883)"
           id="g168"><text
             id="text170"
             style="font-variant:normal;font-weight:300;font-size:7px;font-family:Helvetica;-inkscape-font-specification:Helvetica-Light;writing-mode:lr-tb;fill:#000000;fill-opacity:1;fill-rule:nonzero;stroke:none"
             transform="translate(-16,8)"><tspan
               id="tspan172"
               y="0"
               x="0 5.0539999 10.108 14.385 16.330999 21 24.892 28.392 33.445999 37.338001">DNS Answer</tspan></text>
</g><g
           transform="matrix(1,0,0,-1,50.125,200.7792)"
           id="g174"><text
             id="text176"
             style="font-variant:normal;font-weight:300;font-size:10px;font-family:Helvetica;-inkscape-font-specification:Helvetica-Light;writing-mode:lr-tb;fill:#000000;fill-opacity:1;fill-rule:nonzero;stroke:none"
             transform="translate(-6.945,4)"><tspan
               id="tspan178"
               y="0"
               x="0 7.2199998">CA</tspan></text>
</g><path
           id="path180"
           style="fill:#fbfbfb;fill-opacity:1;fill-rule:nonzero;stroke:none"
           d="m 20.5,183.1741 60.25,0 c 1.65685,0 3,-1.3431 3,-3 l 0,-21.75 c 0,-1.6568 -1.34315,-3 -3,-3 l -60.25,0 c -1.65685,0 -3,1.3432 -3,3 l 0,21.75 c 0,1.6569 1.34315,3 3,3 z" /><g
           transform="matrix(1,0,0,-1,-53.5,378.5)"
           id="g182"><path
             id="path184"
             style="fill:none;stroke:#000000;stroke-width:0.5;stroke-linecap:round;stroke-linejoin:round;stroke-miterlimit:10;stroke-dasharray:none;stroke-opacity:1"
             d="m 74,195.3259 60.25,0 c 1.6569,0 3,1.3431 3,3 l 0,21.75 c 0,1.6568 -1.3431,3 -3,3 l -60.25,0 c -1.65685,0 -3,-1.3432 -3,-3 l 0,-21.75 c 0,-1.6569 1.34315,-3 3,-3 z" /></g><g
           transform="matrix(1,0,0,-1,50.125,169.7991)"
           id="g186"><text
             id="text188"
             style="font-variant:normal;font-weight:300;font-size:8px;font-family:Helvetica;-inkscape-font-specification:Helvetica-Light;writing-mode:lr-tb;fill:#000000;fill-opacity:1;fill-rule:nonzero;stroke:none"
             transform="translate(-17.116,-2)"><tspan
               id="tspan190"
               y="0"
               x="0 4 8.448 10.224 12 16.888 21.336 23.559999 25.336 29.784 34.231998">validation </tspan></text>
</g><g
           transform="matrix(1,0,0,-1,50.125,169.7991)"
           id="g192"><text
             id="text194"
             style="font-variant:normal;font-weight:300;font-size:8px;font-family:Helvetica;-inkscape-font-specification:Helvetica-Light;writing-mode:lr-tb;fill:#000000;fill-opacity:1;fill-rule:nonzero;stroke:none"
             transform="translate(-10,8)"><tspan
               id="tspan196"
               y="0"
               x="0 4 8.448 11.112 12.888 17.775999">script</tspan></text>
</g><g
           transform="matrix(1,0,0,-1,-53.5,378.5)"
           id="g198"><path
             id="path200"
             style="fill:none;stroke:#000000;stroke-width:0.5;stroke-linecap:round;stroke-linejoin:round;stroke-miterlimit:10;stroke-dasharray:none;stroke-opacity:1"
             d="m 104.125,223.0759 0,39.7241" /></g><path
           id="path202"
           style="fill:#000000;fill-opacity:1;fill-rule:nonzero;stroke:none"
           d="m 50.625,111.7 1.5,4 -3,0 1.5,-4 z" /><g
           transform="matrix(1,0,0,-1,-53.5,378.5)"
           id="g204"><path
             id="path206"
             style="fill:none;stroke:#000000;stroke-width:0.5;stroke-linecap:butt;stroke-linejoin:miter;stroke-miterlimit:10;stroke-dasharray:none;stroke-opacity:1"
             d="m 104.125,266.8 1.5,-4 -3,0 1.5,4 z" /></g><path
           id="path208"
           style="fill:#ffffff;fill-opacity:1;fill-rule:nonzero;stroke:none"
           d="m 14.3125,149.8378 71.625,0 0,-24 -71.625,0 0,24 z" /><g
           transform="matrix(1,0,0,-1,50.125,137.8378)"
           id="g210"><text
             id="text212"
             style="font-variant:normal;font-weight:300;font-size:7px;font-family:Helvetica;-inkscape-font-specification:Helvetica-Light;writing-mode:lr-tb;fill:#000000;fill-opacity:1;fill-rule:nonzero;stroke:none"
             transform="translate(-33.2605,-6)"><tspan
               id="tspan214"
               y="0"
               x="0 5.0539999 8.9460001 14.777 20.608 24.5 28.392 32.668999 34.615002 36.168999 40.061001 43.561001 47.452999 51.345001 55.237 57.182999 58.737 62.629002">Command invocation</tspan></text>
</g><g
           transform="matrix(1,0,0,-1,50.125,137.8378)"
           id="g216"><text
             id="text218"
             style="font-variant:normal;font-weight:300;font-size:7px;font-family:Helvetica;-inkscape-font-specification:Helvetica-Light;writing-mode:lr-tb;fill:#000000;fill-opacity:1;fill-rule:nonzero;stroke:none"
             transform="translate(-6.223,2)"><tspan
               id="tspan220"
               y="0"
               x="0 5.0539999 6.6079998 8.5539999">with</tspan></text>
</g><g
           transform="matrix(1,0,0,-1,50.125,137.8378)"
           id="g222"><text
             id="text224"
             style="font-variant:normal;font-weight:300;font-size:7px;font-family:Helvetica;-inkscape-font-specification:Helvetica-Light;writing-mode:lr-tb;fill:#000000;fill-opacity:1;fill-rule:nonzero;stroke:none"
             transform="translate(-32.6095,10)"><tspan
               id="tspan226"
               y="0"
               x="0 3.5 7.777 13.223 18.277 20.223 24.5 30.330999 34.223 36.168999 38.374001 42.265999 45.765999 50.042999 53.935001 57.827 61.327">JSON/XML response</tspan></text>
</g><g
           transform="matrix(1,0,0,-1,407.125,200.7792)"
           id="g228"><text
             id="text230"
             style="font-variant:normal;font-weight:300;font-size:10px;font-family:Helvetica;-inkscape-font-specification:Helvetica-Light;writing-mode:lr-tb;fill:#000000;fill-opacity:1;fill-rule:nonzero;stroke:none"
             transform="translate(-33.62,4)"><tspan
               id="tspan232"
               y="0"
               x="0 2.78 8.3400002 11.67 17.780001 23.34 26.120001 28.9 34.459999 39.459999 45.02 53.349998 59.459999 61.68">target.example</tspan></text>
</g><g
           transform="matrix(1,0,0,-1,-53.5,378.5)"
           id="g234"><path
             id="path236"
             style="fill:none;stroke:#000000;stroke-width:0.5;stroke-linecap:round;stroke-linejoin:round;stroke-miterlimit:10;stroke-dasharray:none;stroke-opacity:1"
             d="M 434.5079,217.0335 C 387.01,204.8103 341.538,181.6657 292,180.3604 244.0947,179.0981 192.3592,198.2586 142.3564,208.216" /></g><path
           id="path238"
           style="fill:#000000;fill-opacity:1;fill-rule:nonzero;stroke:none"
           d="m 84.92828,169.5264 4.21169,-0.7154 -0.56814,2.9458 -3.64355,-2.2304 z" /><g
           transform="matrix(1,0,0,-1,-53.5,378.5)"
           id="g240"><path
             id="path242"
             style="fill:none;stroke:#000000;stroke-width:0.5;stroke-linecap:butt;stroke-linejoin:miter;stroke-miterlimit:10;stroke-dasharray:none;stroke-opacity:1"
             d="m 138.4283,208.9736 4.2117,0.7154 -0.5682,-2.9458 -3.6435,2.2304 z" /></g><g
           transform="matrix(1,0,0,-1,234,204.6396)"
           id="g244"><text
             id="text246"
             style="font-variant:normal;font-weight:300;font-size:8px;font-family:Helvetica;-inkscape-font-specification:Helvetica-Light;writing-mode:lr-tb;fill:#000000;fill-opacity:1;fill-rule:nonzero;stroke:none"
             transform="translate(-35.716,3)"><tspan
               id="tspan248"
               y="0"
               x="0 2.52 6.9679999 11.856 16.304001 20.752001 24.752001 26.976 29.200001 31.424 35.872002 38.096001 42.096001 43.872002 48.759998 53.208 55.431999 61.208 66.096001">request to sign CSR</tspan></text>
</g><path
           id="path250"
           style="fill:#fbfbfb;fill-opacity:1;fill-rule:nonzero;stroke:none"
           d="m 395.125,175.2792 25,0 c 7.663,0 13.875,-6.212 13.875,-13.875 l 0,0 c 0,-7.6629 -6.212,-13.875 -13.875,-13.875 l -25,0 c -7.663,0 -13.875,6.2121 -13.875,13.875 l 0,0 c 0,7.663 6.212,13.875 13.875,13.875 z" /><g
           transform="matrix(1,0,0,-1,-53.5,378.5)"
           id="g252"><path
             id="path254"
             style="fill:none;stroke:#000000;stroke-width:0.5;stroke-linecap:round;stroke-linejoin:round;stroke-miterlimit:10;stroke-dasharray:none;stroke-opacity:1"
             d="m 448.625,203.2208 25,0 c 7.663,0 13.875,6.212 13.875,13.875 l 0,0 c 0,7.6629 -6.212,13.875 -13.875,13.875 l -25,0 c -7.663,0 -13.875,-6.2121 -13.875,-13.875 l 0,0 c 0,-7.663 6.212,-13.875 13.875,-13.875 z" /></g><g
           transform="matrix(1,0,0,-1,407.125,161.9042)"
           id="g256"><text
             id="text258"
             style="font-variant:normal;font-weight:300;font-size:8px;font-family:Helvetica;-inkscape-font-specification:Helvetica-Light;writing-mode:lr-tb;fill:#000000;fill-opacity:1;fill-rule:nonzero;stroke:none"
             transform="translate(-10.892,3)"><tspan
               id="tspan260"
               y="0"
               x="0 4.448 10.224 14.672 19.120001">owner</tspan></text>
</g><g
           transform="matrix(1,0,0,-1,-53.5,378.5)"
           id="g262"><path
             id="path264"
             style="fill:none;stroke:#000000;stroke-width:0.5;stroke-linecap:round;stroke-linejoin:round;stroke-miterlimit:10;stroke-dasharray:none;stroke-opacity:1"
             d="m 461.125,230.9708 0,30.5042" /></g><path
           id="path266"
           style="fill:#000000;fill-opacity:1;fill-rule:nonzero;stroke:none"
           d="m 407.625,113.825 1.2,3.2 -2.4,0 1.2,-3.2 z" /><g
           transform="matrix(1,0,0,-1,-53.5,378.5)"
           id="g268"><path
             id="path270"
             style="fill:none;stroke:#000000;stroke-width:0.5;stroke-linecap:butt;stroke-linejoin:miter;stroke-miterlimit:10;stroke-dasharray:none;stroke-opacity:1"
             d="m 461.125,264.675 1.2,-3.2 -2.4,0 1.2,3.2 z" /></g><path
           id="path272"
           style="fill:#ffffff;fill-opacity:1;fill-rule:nonzero;stroke:none"
           d="m 383.625,136.5 47,0 0,-10 -47,0 0,10 z" /><g
           transform="matrix(1,0,0,-1,407.125,131.5)"
           id="g274"><text
             id="text276"
             style="font-variant:normal;font-weight:300;font-size:8px;font-family:Helvetica;-inkscape-font-specification:Helvetica-Light;writing-mode:lr-tb;fill:#000000;fill-opacity:1;fill-rule:nonzero;stroke:none"
             transform="translate(-23.344,3)"><tspan
               id="tspan278"
               y="0"
               x="0 4.448 8.8959999 13.344 17.344 22.232 26.68 29.344 33.792 36.015999 37.792 42.240002">confguration</tspan></text>
</g><g
           transform="matrix(1,0,0,-1,147.6888,98.29787)"
           id="g280"><text
             id="text282"
             style="font-variant:normal;font-weight:normal;font-size:8px;font-family:'Lucida Grande';-inkscape-font-specification:LucidaGrande;writing-mode:lr-tb;fill:#000000;fill-opacity:1;fill-rule:nonzero;stroke:none"
             transform="translate(-34.5,-2)"><tspan
               id="tspan284"
               y="0"
               x="0">→</tspan></text>
</g><g
           transform="matrix(1,0,0,-1,147.6888,98.29787)"
           id="g286"><text
             id="text288"
             style="font-variant:normal;font-weight:300;font-size:7px;font-family:Helvetica;-inkscape-font-specification:Helvetica-Light;writing-mode:lr-tb;fill:#000000;fill-opacity:1;fill-rule:nonzero;stroke:none"
             transform="translate(-26.5,-2)"><tspan
               id="tspan290"
               y="0"
               x="0 5.0539999 8.9460001 12.838 17.115 19.061001 24.507 28.784 32.675999 34.622002 39.291 43.182999 47.459999 51.352001 55.243999 58.743999">HTTP GET Request</tspan></text>
</g><g
           transform="matrix(1,0,0,-1,147.6888,98.29787)"
           id="g292"><text
             id="text294"
             style="font-variant:normal;font-weight:normal;font-size:8px;font-family:'Lucida Grande';-inkscape-font-specification:LucidaGrande;writing-mode:lr-tb;fill:#000000;fill-opacity:1;fill-rule:nonzero;stroke:none"
             transform="translate(-34.5,8)"><tspan
               id="tspan296"
               y="0"
               x="0">←</tspan></text>
</g><g
           transform="matrix(1,0,0,-1,147.6888,98.29787)"
           id="g298"><text
             id="text300"
             style="font-variant:normal;font-weight:300;font-size:7px;font-family:Helvetica;-inkscape-font-specification:Helvetica-Light;writing-mode:lr-tb;fill:#000000;fill-opacity:1;fill-rule:nonzero;stroke:none"
             transform="translate(-26.5,8)"><tspan
               id="tspan302"
               y="0"
               x="0 3.5 7.777 13.223 18.277 20.223 24.892 28.784 32.284 36.561001 40.452999 44.345001 47.845001">JSON Response</tspan></text>
</g><g
           transform="matrix(1,0,0,-1,316.0037,99.25)"
           id="g304"><text
             id="text306"
             style="font-variant:normal;font-weight:normal;font-size:8px;font-family:'Lucida Grande';-inkscape-font-specification:LucidaGrande;writing-mode:lr-tb;fill:#000000;fill-opacity:1;fill-rule:nonzero;stroke:none"
             transform="translate(-24,-2)"><tspan
               id="tspan308"
               y="0"
               x="0">→</tspan></text>
</g><g
           transform="matrix(1,0,0,-1,316.0037,99.25)"
           id="g310"><text
             id="text312"
             style="font-variant:normal;font-weight:300;font-size:7px;font-family:Helvetica;-inkscape-font-specification:Helvetica-Light;writing-mode:lr-tb;fill:#000000;fill-opacity:1;fill-rule:nonzero;stroke:none"
             transform="translate(-16,-2)"><tspan
               id="tspan314"
               y="0"
               x="0 5.0539999 10.108 14.385 16.330999 21.777 25.669001 29.561001 32.018002">DNS Query</tspan></text>
</g><g
           transform="matrix(1,0,0,-1,316.0037,99.25)"
           id="g316"><text
             id="text318"
             style="font-variant:normal;font-weight:normal;font-size:8px;font-family:'Lucida Grande';-inkscape-font-specification:LucidaGrande;writing-mode:lr-tb;fill:#000000;fill-opacity:1;fill-rule:nonzero;stroke:none"
             transform="translate(-24,8)"><tspan
               id="tspan320"
               y="0"
               x="0">←</tspan></text>
</g><g
           transform="matrix(1,0,0,-1,316.0037,99.25)"
           id="g322"><text
             id="text324"
             style="font-variant:normal;font-weight:300;font-size:7px;font-family:Helvetica;-inkscape-font-specification:Helvetica-Light;writing-mode:lr-tb;fill:#000000;fill-opacity:1;fill-rule:nonzero;stroke:none"
             transform="translate(-16,8)"><tspan
               id="tspan326"
               y="0"
               x="0 5.0539999 10.108 14.385 16.330999 21 24.892 28.392 33.445999 37.338001">DNS Answer</tspan></text>
</g><g
           transform="matrix(1,0,0,-1,-53.5,378.5)"
           id="g328"><path
             id="path330"
             style="fill:none;stroke:#929292;stroke-width:1;stroke-linecap:round;stroke-linejoin:round;stroke-miterlimit:10;stroke-dasharray:1, 9;stroke-dashoffset:0;stroke-opacity:1"
             d="m 287.5,305.5074 0,24" /></g><g
           transform="matrix(1,0,0,-1,109.6888,103.2207)"
           id="g332"><text
             id="text334"
             style="font-variant:normal;font-weight:normal;font-size:8px;font-family:Candara;-inkscape-font-specification:Candara;writing-mode:lr-tb;fill:#000000;fill-opacity:1;fill-rule:nonzero;stroke:none"
             transform="translate(-3.542969,3)"><tspan
               id="tspan336"
               y="0"
               x="0">❶</tspan></text>
</g><g
           transform="matrix(1,0,0,-1,288.5037,104.25)"
           id="g338"><text
             id="text340"
             style="font-variant:normal;font-weight:normal;font-size:8px;font-family:Candara;-inkscape-font-specification:Candara;writing-mode:lr-tb;fill:#000000;fill-opacity:1;fill-rule:nonzero;stroke:none"
             transform="translate(-3.542969,3)"><tspan
               id="tspan342"
               y="0"
               x="0">❷</tspan></text>
</g><g
           transform="matrix(1,0,0,-1,288.5037,94.29788)"
           id="g344"><text
             id="text346"
             style="font-variant:normal;font-weight:normal;font-size:8px;font-family:Candara;-inkscape-font-specification:Candara;writing-mode:lr-tb;fill:#000000;fill-opacity:1;fill-rule:nonzero;stroke:none"
             transform="translate(-3.542969,3)"><tspan
               id="tspan348"
               y="0"
               x="0">❸</tspan></text>
</g><g
           transform="matrix(1,0,0,-1,109.6888,93.2776)"
           id="g350"><text
             id="text352"
             style="font-variant:normal;font-weight:normal;font-size:8px;font-family:Candara;-inkscape-font-specification:Candara;writing-mode:lr-tb;fill:#000000;fill-opacity:1;fill-rule:nonzero;stroke:none"
             transform="translate(-3.542969,3)"><tspan
               id="tspan354"
               y="0"
               x="0">❹</tspan></text>
</g><path
           id="path356"
           style="fill:#ffffff;fill-opacity:1;fill-rule:nonzero;stroke:none"
           d="m 11.625,73.49261 190.125,0 0,-8 -190.125,0 0,8 z" /><g
           transform="matrix(1,0,0,-1,106.6875,69.49261)"
           id="g358"><text
             id="text360"
             style="font-variant:normal;font-weight:normal;font-size:6px;font-family:Candara;-inkscape-font-specification:Candara;writing-mode:lr-tb;fill:#000000;fill-opacity:1;fill-rule:nonzero;stroke:none"
             transform="translate(-95.0625,2)"><tspan
               id="tspan362"
               y="0"
               x="0">❶</tspan></text>
</g><g
           transform="matrix(1,0,0,-1,106.6875,69.49261)"
           id="g364"><text
             id="text366"
             style="font-variant:normal;font-weight:300;font-size:5px;font-family:Helvetica;-inkscape-font-specification:Helvetica-Light;writing-mode:lr-tb;fill:#000000;fill-opacity:1;fill-rule:nonzero;stroke:none"
             transform="translate(-88.35805,2)"><tspan
               id="tspan368"
               y="0"
               x="0 3.8900001 6.9450002 9.7250004 11.115 12.505 15.285 18.065001 20.844999 25.01 27.790001 29.18 30.57 33.349998 35.014999 38.07 40.849998 42.240002 43.630001 46.41 48.91 51.689999 55.855 58.91 60.02 62.799999 64.190002 66.970001 69.75 72.529999 73.639999 74.75 77.529999 80.309998 83.364998 86.144997 87.535004 88.925003 91.705002 93.370003 96.425003 99.205002 100.595 101.985 104.765 107.265 110.045 114.21 117.265 118.375 121.155 122.545 124.12 126.9 129.39999 132.455 135.235 138.015 140.515 143.295 144.685 146.075 148.855 150.52 153.575 156.355 157.745 159.13499 161.91499 164.41499 167.19501 171.36 174.41499 175.52499">GET /cname/target.example/challenge.target.example/response.target.example</tspan></text>
</g><path
           id="path370"
           style="fill:#ffffff;fill-opacity:1;fill-rule:nonzero;stroke:none"
           d="m 11.625,65.49261 170.5638,0 0,-9 -170.5638,0 0,9 z" /><g
           transform="matrix(1,0,0,-1,96.9069,60.99261)"
           id="g372"><text
             id="text374"
             style="font-variant:normal;font-weight:normal;font-size:6px;font-family:Candara;-inkscape-font-specification:Candara;writing-mode:lr-tb;fill:#000000;fill-opacity:1;fill-rule:nonzero;stroke:none"
             transform="translate(-85.2819,2.5)"><tspan
               id="tspan376"
               y="0"
               x="0">❷</tspan></text>
</g><g
           transform="matrix(1,0,0,-1,96.9069,60.99261)"
           id="g378" /><g
           transform="matrix(1,0,0,-1,96.9069,60.99261)"
           id="g380"><text
             id="text382"
             style="font-variant:normal;font-weight:300;font-size:5px;font-family:Helvetica;-inkscape-font-specification:Helvetica-Light;writing-mode:lr-tb;fill:#000000;fill-opacity:1;fill-rule:nonzero;stroke:none"
             transform="translate(-77.74479,2.5)"><tspan
               id="tspan384"
               y="0"
               x="0 3.8900001 7.5 10.555 13.61 16.389999 17.780001 21.67 25.280001 26.67 28.059999 30.84 33.619999 36.400002 37.509998 38.619999 41.400002 44.18 47.235001 50.014999 51.404999 52.794998 55.575001 57.240002 60.294998 63.075001 64.464996 65.855003 68.635002 71.135002 73.915001 78.080002 81.135002 82.245003 85.025002 86.415001 87.805 89.195 92.805 94.195 97.805 101.415 104.75 108.915">QUESTION: challenge.target.example. IN CNAME</tspan></text>
</g><path
           id="path386"
           style="fill:#ffffff;fill-opacity:1;fill-rule:nonzero;stroke:none"
           d="m 11.625,56.49261 190.125,0 0,-9 -190.125,0 0,9 z" /><g
           transform="matrix(1,0,0,-1,106.6875,51.99261)"
           id="g388"><text
             id="text390"
             style="font-variant:normal;font-weight:normal;font-size:6px;font-family:Candara;-inkscape-font-specification:Candara;writing-mode:lr-tb;fill:#000000;fill-opacity:1;fill-rule:nonzero;stroke:none"
             transform="translate(-95.0625,2.5)"><tspan
               id="tspan392"
               y="0"
               x="0">❸</tspan></text>
</g><g
           transform="matrix(1,0,0,-1,106.6875,51.99261)"
           id="g394" /><g
           transform="matrix(1,0,0,-1,106.6875,51.99261)"
           id="g396"><text
             id="text398"
             style="font-variant:normal;font-weight:300;font-size:5px;font-family:Helvetica;-inkscape-font-specification:Helvetica-Light;writing-mode:lr-tb;fill:#000000;fill-opacity:1;fill-rule:nonzero;stroke:none"
             transform="translate(-87.52539,2.5)"><tspan
               id="tspan400"
               y="0"
               x="0 3.335 6.9450002 10 14.445 17.5 20.834999 22.225 23.615 26.395 29.174999 31.955 33.064999 34.174999 36.955002 39.735001 42.790001 45.57 46.959999 48.349998 51.130001 52.794998 55.849998 58.630001 60.02 61.41 64.190002 66.690002 69.470001 73.635002 76.690002 77.800003 80.580002 81.970001 83.360001 84.75 88.360001 89.75 93.360001 96.970001 100.305 104.47 107.525 108.915 110.49 113.27 115.77 118.825 121.605 124.385 126.885 129.66499 131.05499 132.44501 135.22501 136.89 139.94501 142.72501 144.11501 145.505 148.285 150.785 153.565 157.73 160.785 161.895 164.675">ANSWER: challenge.target.example. IN CNAME response.target.example.</tspan></text>
</g><path
           id="path402"
           style="fill:#ffffff;fill-opacity:1;fill-rule:nonzero;stroke:none"
           d="m 11.625,47.49261 164.375,0 0,-9 -164.375,0 0,9 z" /><g
           transform="matrix(1,0,0,-1,93.8125,42.99261)"
           id="g404"><text
             id="text406"
             style="font-variant:normal;font-weight:normal;font-size:6px;font-family:Candara;-inkscape-font-specification:Candara;writing-mode:lr-tb;fill:#000000;fill-opacity:1;fill-rule:nonzero;stroke:none"
             transform="translate(-82.1875,2.5)"><tspan
               id="tspan408"
               y="0"
               x="0">❹</tspan></text>
</g><g
           transform="matrix(1,0,0,-1,93.8125,42.99261)"
           id="g410" /><g
           transform="matrix(1,0,0,-1,93.8125,42.99261)"
           id="g412"><text
             id="text414"
             style="font-variant:normal;font-weight:300;font-size:5px;font-family:Helvetica;-inkscape-font-specification:Helvetica-Light;writing-mode:lr-tb;fill:#000000;fill-opacity:1;fill-rule:nonzero;stroke:none"
             transform="translate(-74.65039,2.5)"><tspan
               id="tspan416"
               y="0"
               x="0 1.665 3.0550001 5.5549998 8.335 11.115 13.895 16.674999 19.174999 21.674999 23.065001 24.455 25.844999 27.235001 28.9 31.68 34.459999 35.849998 37.240002 38.630001 40.205002 42.985001 45.485001 48.540001 51.32 54.099998 56.599998 59.380001 60.77 62.16 63.549999 64.940002 66.514999 69.294998 71.794998 74.849998 77.629997 80.410004 82.910004 85.690002 87.080002 89.860001 92.360001 95.139999 99.305 102.36 103.47 106.25 107.64 110.695 113.475 117.64 120.42 121.53 124.31 125.7 127.09 128.48 129.87 131.25999 134.03999 135.705 137.28 140.06 141.72501 144.22501 145.61501 147.005 148.395 150.06 151.72501">{&quot;success&quot;: true, &quot;response&quot;: &quot;response.example.domain.&quot;, &quot;errors&quot;: []}</tspan></text>
</g></g></g></g></svg>